<?xml version="1.0" standalone="no"?>
<!DOCTYPE svg PUBLIC "-//W3C//DTD SVG 20010904//EN"
 "http://www.w3.org/TR/2001/REC-SVG-20010904/DTD/svg10.dtd">
<svg version="1.0" xmlns="http://www.w3.org/2000/svg"
 width="1920.000000pt" height="1080.000000pt" viewBox="0 0 1920.000000 1080.000000"
 preserveAspectRatio="xMidYMid meet">
<metadata>
Created by potrace 1.16, written by Peter Selinger 2001-2019
</metadata>
<g transform="translate(0.000000,1080.000000) scale(0.100000,-0.100000)"
fill="#ffffff" stroke="none">
<path d="M11395 8690 c-11 -5 -168 -9 -350 -10 l-330 -1 -62 -92 c-34 -51 -58
-93 -54 -95 5 -2 34 9 66 23 57 25 58 25 349 25 l292 0 55 63 c81 93 84 97 68
96 -8 0 -23 -4 -34 -9z"/>
<path d="M10480 8409 c-19 -5 -210 -9 -425 -9 l-390 0 -73 -104 c-97 -140 -97
-142 -28 -111 l57 25 372 1 372 1 99 104 c105 110 106 116 16 93z"/>
<path d="M11176 8225 c-57 -24 -69 -25 -274 -25 l-214 0 -49 -27 c-40 -23 -51
-36 -66 -77 -16 -44 -31 -61 -113 -126 l-95 -75 -357 3 -358 3 0 80 0 79 -190
0 -190 0 0 -85 0 -85 -92 0 -93 -1 -78 -107 c-42 -59 -73 -108 -68 -110 5 -2
37 11 70 27 55 28 69 31 161 31 l100 0 0 -866 c0 -689 -3 -865 -12 -861 -7 2
-67 17 -133 32 -66 15 -137 36 -158 47 -42 21 -35 22 -149 -26 l-38 -16 0 775
0 775 100 0 100 0 1 -67 c1 -38 5 -333 8 -658 l7 -590 2 673 2 672 -160 0
-160 0 -2 -802 -3 -802 -845 -211 c-465 -117 -864 -217 -887 -224 l-43 -12 0
-114 0 -115 50 0 50 0 0 -80 0 -80 -50 0 -50 0 0 -80 c0 -75 -1 -80 -22 -84
-21 -4 -359 -26 -400 -26 -15 0 -18 -10 -18 -65 0 -64 0 -65 28 -65 15 0 438
34 940 75 502 41 920 75 928 75 18 0 20 -80 2 -81 -7 0 -436 -37 -953 -82
l-940 -82 -3 -28 -3 -28 63 6 c73 7 1794 115 1827 115 18 0 21 -6 21 -44 l0
-45 -52 -5 c-49 -5 -1785 -86 -1835 -86 -20 0 -23 -5 -23 -41 l0 -41 113 6
c145 9 1710 76 1760 76 37 0 37 0 37 -40 0 -33 -4 -40 -22 -44 -13 -2 -347
-12 -743 -21 -396 -8 -816 -18 -932 -22 l-213 -6 0 -29 0 -28 -230 0 -230 0 0
-30 0 -30 1940 0 1940 0 0 69 c0 64 -1 69 -20 64 -13 -3 -20 -14 -20 -29 0
-15 -6 -24 -15 -24 -8 0 -15 -7 -15 -15 0 -11 -11 -15 -36 -15 -42 0 -46 -8
48 103 49 57 58 74 58 107 0 35 -5 42 -66 92 -36 29 -71 63 -78 75 -10 20 -19
-1 -75 -177 l-64 -200 -39 0 c-21 0 -38 2 -38 4 0 2 23 103 50 225 28 122 50
223 50 226 0 3 18 5 41 5 35 0 40 2 34 18 -4 9 -10 38 -12 65 l-6 47 -83 0
c-83 0 -84 0 -84 25 0 25 1 25 85 25 l85 0 0 85 0 85 -95 0 -95 0 0 30 0 30
95 0 95 0 0 289 c0 248 -2 290 -15 295 -12 4 -15 29 -17 118 l-2 113 -3 -106
-4 -107 -38 10 -38 10 -6 666 c-4 367 -7 841 -7 1054 l0 388 33 -7 c17 -3 34
-8 36 -10 3 -1 10 -265 16 -586 l12 -582 1 438 2 437 353 1 352 0 107 133 107
134 53 5 c29 4 138 9 243 13 104 4 199 10 211 13 12 3 43 33 70 66 26 33 63
79 82 103 40 49 32 51 -52 17z m-1909 -2545 c153 -33 281 -60 286 -60 4 0 7
-7 7 -15 0 -8 -3 -15 -7 -15 -13 0 -527 71 -550 76 -19 3 -23 11 -23 39 0 19
2 35 4 35 2 0 129 -27 283 -60z m-621 -208 c-4 -3 -1579 -280 -1604 -282 -2 0
-2 35 0 77 l3 77 800 186 800 185 3 -119 c1 -65 0 -121 -2 -124z m634 -11
c258 -44 275 -48 278 -69 3 -16 -2 -22 -15 -22 -10 1 -139 22 -288 48 -255 45
-270 49 -273 70 -2 13 2 22 10 21 7 0 137 -22 288 -48z m-4 -216 c142 -19 265
-35 272 -35 6 0 12 -9 12 -20 0 -11 -6 -20 -12 -20 -7 0 -132 16 -277 35 -145
19 -270 35 -277 35 -8 0 -14 9 -14 20 0 13 7 20 19 20 10 0 135 -16 277 -35z"/>
<path d="M10686 6041 c-77 -21 -141 -42 -143 -47 -2 -8 -30 -618 -31 -679 0
-11 -3 -90 -7 -175 -6 -137 -3 -186 24 -413 17 -142 33 -263 36 -268 4 -5 69
-9 146 -9 l139 0 0 815 c0 646 -3 815 -12 814 -7 0 -76 -18 -152 -38z"/>
<path d="M9816 5853 c-3 -8 -6 -131 -6 -274 l0 -259 35 0 35 0 -2 267 -3 267
-27 7 c-19 5 -28 3 -32 -8z"/>
<path d="M9817 5254 c-4 -4 -7 -43 -7 -86 l0 -78 35 0 36 0 -3 83 c-3 79 -4
82 -28 85 -14 2 -29 0 -33 -4z"/>
<path d="M9810 4913 c1 -80 5 -106 23 -142 39 -78 47 -66 47 68 0 118 0 121
-27 146 -15 14 -31 25 -35 25 -5 0 -8 -44 -8 -97z"/>
<path d="M11370 4655 l0 -205 145 0 145 0 0 151 0 152 113 -6 c374 -22 357
-22 357 -1 0 18 -29 23 -362 67 -200 26 -371 47 -380 47 -17 0 -18 -17 -18
-205z"/>
<path d="M8030 3882 c0 -32 17 -42 76 -42 16 0 39 -6 50 -14 18 -14 19 -31 22
-353 5 -448 1 -473 -71 -473 -59 0 -77 -10 -77 -41 l0 -29 230 0 230 0 0 29
c0 28 -3 30 -47 36 -27 3 -55 7 -63 8 -31 4 -40 49 -40 199 l0 146 213 4 c185
4 219 7 264 25 76 30 128 76 159 138 23 48 26 64 23 134 -4 69 -8 85 -34 123
-31 44 -111 99 -175 120 -23 8 -156 13 -397 15 l-363 4 0 -29z m632 -58 c84
-12 158 -101 158 -189 0 -81 -65 -172 -138 -193 -20 -6 -106 -14 -189 -18
l-153 -7 0 213 0 212 143 -6 c78 -4 159 -9 179 -12z"/>
<path d="M9090 3881 c0 -33 14 -41 69 -41 26 0 44 -7 57 -21 18 -20 19 -43 22
-343 5 -444 0 -476 -71 -476 -59 0 -77 -10 -77 -41 l0 -29 225 0 225 0 0 35 0
35 -50 0 c-81 0 -90 15 -90 158 l0 117 66 55 c35 30 68 55 73 55 4 0 65 -65
135 -145 188 -213 202 -240 133 -240 -59 0 -77 -10 -77 -41 l0 -29 250 0 250
0 0 35 c0 35 0 35 -45 35 -26 0 -58 6 -73 14 -33 18 -120 108 -282 291 -68 77
-134 152 -147 166 l-24 26 175 150 c97 83 192 159 213 168 21 10 62 21 91 23
52 4 52 5 52 38 l0 34 -215 0 -215 0 0 -29 c0 -30 18 -41 67 -41 26 0 37 -14
26 -34 -4 -8 -107 -103 -228 -211 l-220 -197 -3 196 c-1 124 1 204 8 216 10
20 20 23 93 35 33 5 37 9 37 35 l0 30 -225 0 -225 0 0 -29z"/>
<path d="M10300 3881 c0 -28 3 -30 48 -36 26 -3 54 -7 62 -8 36 -5 40 -42 40
-414 0 -203 -4 -373 -9 -386 -11 -27 -21 -32 -93 -42 -45 -6 -48 -8 -48 -36
l0 -29 408 0 408 0 63 151 c38 91 60 154 55 159 -6 6 -24 12 -41 16 -29 6 -33
3 -67 -50 -70 -110 -146 -165 -255 -186 -67 -13 -221 -13 -241 0 -13 8 -15 63
-18 372 -2 200 0 378 3 396 7 37 25 47 98 57 44 6 47 8 47 36 l0 29 -230 0
-230 0 0 -29z"/>
<path d="M8190 2541 c0 -6 5 -13 10 -16 6 -3 10 -50 10 -105 l0 -99 -27 3
c-27 3 -28 6 -31 62 -4 71 -13 84 -62 84 -51 0 -70 -8 -70 -31 0 -23 9 -24 38
-3 28 19 52 12 52 -16 0 -16 -6 -20 -35 -20 -22 0 -43 -8 -55 -20 -23 -23 -24
-33 -10 -61 12 -22 78 -27 98 -7 8 8 12 9 12 1 0 -8 28 -12 80 -12 46 0 80 4
80 9 0 6 -7 10 -15 10 -17 0 -21 45 -6 55 12 7 49 -46 44 -62 -3 -9 8 -13 36
-13 23 0 41 5 41 10 0 6 -4 10 -9 10 -5 0 -23 19 -40 42 l-31 42 22 23 c12 13
27 23 35 23 7 0 13 7 13 15 0 10 -11 15 -35 15 -27 0 -35 -4 -35 -18 0 -10
-11 -29 -25 -42 l-25 -23 0 76 0 77 -30 0 c-16 0 -30 -4 -30 -9z m-80 -185 c0
-16 -7 -27 -20 -31 -38 -12 -57 24 -22 44 28 17 42 12 42 -13z"/>
<path d="M8650 2541 c0 -6 5 -13 10 -16 6 -3 10 -50 10 -106 0 -59 -4 -99 -10
-99 -5 0 -10 -4 -10 -10 0 -5 20 -10 45 -10 25 0 45 5 45 10 0 6 -7 10 -15 10
-17 0 -21 45 -6 55 12 7 49 -46 44 -62 -3 -9 8 -13 36 -13 23 0 41 5 41 10 0
6 -4 10 -9 10 -5 0 -23 19 -40 42 l-31 42 22 23 c12 13 27 23 35 23 7 0 13 7
13 15 0 10 -11 15 -35 15 -27 0 -35 -4 -35 -18 0 -10 -11 -29 -25 -42 l-25
-23 0 76 0 77 -30 0 c-16 0 -30 -4 -30 -9z"/>
<path d="M8550 2520 c0 -17 5 -21 28 -18 16 2 27 9 27 18 0 9 -11 16 -27 18
-23 3 -28 -1 -28 -18z"/>
<path d="M9570 2520 c0 -15 7 -20 25 -20 18 0 25 5 25 20 0 15 -7 20 -25 20
-18 0 -25 -5 -25 -20z"/>
<path d="M7643 2516 c24 -18 26 -196 2 -196 -8 0 -15 -4 -15 -10 0 -5 25 -10
55 -10 30 0 55 5 55 10 0 6 -7 10 -15 10 -10 0 -15 11 -15 35 0 33 2 35 34 35
63 0 99 77 56 120 -17 17 -33 20 -97 20 -67 -1 -76 -3 -60 -14z m108 -16 c37
-20 19 -90 -23 -90 -15 0 -18 9 -18 50 0 52 7 58 41 40z"/>
<path d="M8443 2523 c-7 -3 -13 -11 -13 -19 0 -7 -9 -19 -20 -26 -24 -15 -26
-28 -5 -28 12 0 15 -14 15 -70 0 -65 2 -71 24 -81 31 -14 76 -4 76 17 0 11 -5
14 -16 10 -29 -11 -44 13 -44 70 0 53 0 54 30 54 20 0 30 5 30 15 0 10 -10 15
-29 15 -24 0 -30 5 -33 23 -2 14 -8 22 -15 20z"/>
<path d="M8950 2520 c0 -5 7 -10 15 -10 12 0 15 -17 15 -95 0 -78 -3 -95 -15
-95 -8 0 -15 -4 -15 -10 0 -5 25 -10 55 -10 30 0 55 5 55 10 0 6 -7 10 -15 10
-11 0 -15 11 -15 40 0 22 4 40 8 40 14 0 56 -63 55 -82 -2 -15 6 -18 43 -18
50 0 53 5 21 30 -13 10 -36 37 -51 59 l-28 40 29 36 c15 19 38 38 51 41 38 10
24 24 -23 24 -32 0 -45 -4 -43 -13 2 -7 -12 -30 -29 -52 l-33 -40 0 43 c0 31
4 42 15 42 8 0 15 5 15 10 0 6 -25 10 -55 10 -30 0 -55 -4 -55 -10z"/>
<path d="M9950 2520 c0 -5 7 -10 15 -10 12 0 15 -17 15 -95 0 -78 -3 -95 -15
-95 -8 0 -15 -4 -15 -10 0 -6 38 -10 95 -10 l95 0 0 40 c0 47 -27 58 -32 13
-3 -24 -8 -28 -40 -31 l-38 -3 0 95 c0 79 3 96 15 96 8 0 15 5 15 10 0 6 -25
10 -55 10 -30 0 -55 -4 -55 -10z"/>
<path d="M7858 2473 c-22 -6 -23 -19 -3 -27 11 -4 15 -21 15 -66 0 -47 -3 -60
-15 -60 -8 0 -15 -4 -15 -10 0 -5 23 -10 50 -10 28 0 50 5 50 10 0 6 -7 10
-15 10 -12 0 -15 13 -15 55 0 43 4 56 19 65 13 7 22 7 26 0 12 -20 36 -11 33
13 -4 28 -43 35 -69 11 -17 -16 -19 -16 -19 -1 0 17 -9 19 -42 10z"/>
<path d="M9398 2473 c-22 -6 -23 -19 -3 -27 11 -4 15 -21 15 -66 0 -47 -3 -60
-15 -60 -8 0 -15 -4 -15 -10 0 -5 23 -10 50 -10 28 0 50 5 50 10 0 6 -7 10
-15 10 -12 0 -15 13 -15 55 0 43 4 56 19 65 13 7 22 7 26 0 12 -20 36 -11 33
13 -4 28 -43 35 -69 11 -17 -16 -19 -16 -19 -1 0 17 -9 19 -42 10z"/>
<path d="M10370 2469 c-11 -8 -12 -12 -2 -16 15 -6 18 -213 2 -213 -5 0 -10
-4 -10 -10 0 -5 23 -10 50 -10 50 0 67 13 30 23 -14 4 -20 14 -20 35 0 26 3
29 25 24 84 -16 138 83 84 152 -22 28 -75 36 -97 14 -9 -9 -12 -9 -12 0 0 15
-30 15 -50 1z m128 -51 c24 -51 -8 -104 -56 -91 -19 4 -22 13 -22 52 0 26 6
53 12 59 20 20 52 10 66 -20z"/>
<path d="M10770 2470 c-13 -9 -13 -12 3 -21 13 -8 17 -23 17 -69 l0 -60 -32 4
c-33 3 -33 4 -36 62 -4 71 -13 84 -62 84 -51 0 -70 -8 -70 -31 0 -23 9 -24 38
-3 28 19 52 12 52 -16 0 -16 -6 -20 -35 -20 -22 0 -43 -8 -55 -20 -23 -23 -24
-33 -10 -61 12 -22 78 -27 98 -7 8 8 12 9 12 1 0 -8 28 -12 80 -12 46 0 80 4
80 9 0 6 -5 10 -10 10 -7 0 -10 24 -8 62 3 53 6 63 22 66 28 6 46 -25 46 -80
0 -36 -4 -48 -15 -48 -8 0 -15 -4 -15 -10 0 -5 20 -10 45 -10 25 0 45 5 45 10
0 6 -4 10 -10 10 -6 0 -10 26 -10 58 0 72 -18 102 -64 102 -17 0 -37 -5 -44
-12 -9 -9 -12 -9 -12 0 0 15 -29 16 -50 2z m-90 -114 c0 -16 -7 -27 -20 -31
-38 -12 -57 24 -22 44 28 17 42 12 42 -13z"/>
<path d="M11380 2470 c-13 -9 -13 -12 3 -21 13 -8 17 -23 17 -69 l0 -60 -32 4
c-33 3 -33 4 -36 62 -4 71 -13 84 -62 84 -51 0 -70 -8 -70 -31 0 -23 9 -24 38
-3 28 19 52 12 52 -16 0 -16 -6 -20 -35 -20 -22 0 -43 -8 -55 -20 -23 -23 -24
-33 -10 -61 12 -22 78 -27 98 -7 8 8 12 9 12 1 0 -8 28 -12 80 -12 46 0 80 4
80 9 0 6 -5 10 -10 10 -7 0 -10 24 -8 62 3 53 6 63 22 66 28 6 46 -25 46 -80
0 -36 -4 -48 -15 -48 -8 0 -15 -4 -15 -10 0 -5 20 -10 45 -10 25 0 45 5 45 10
0 6 -4 10 -10 10 -6 0 -10 26 -10 58 0 72 -18 102 -64 102 -17 0 -37 -5 -44
-12 -9 -9 -12 -9 -12 0 0 15 -29 16 -50 2z m-90 -114 c0 -16 -7 -27 -20 -31
-38 -12 -57 24 -22 44 28 17 42 12 42 -13z"/>
<path d="M8535 2460 c-3 -6 1 -13 9 -16 23 -9 23 -124 1 -124 -8 0 -15 -4 -15
-10 0 -5 23 -10 50 -10 28 0 50 5 50 10 0 6 -7 10 -15 10 -12 0 -15 15 -15 75
l0 75 -29 0 c-17 0 -33 -5 -36 -10z"/>
<path d="M9220 2452 c-13 -10 -23 -33 -27 -59 -5 -35 -2 -45 20 -67 18 -18 37
-26 59 -26 48 0 78 10 78 26 0 17 1 17 -38 3 -36 -12 -67 0 -75 31 -5 18 -1
20 54 20 58 0 59 0 59 28 0 16 -8 36 -18 45 -24 22 -84 22 -112 -1z m84 -24
c14 -23 5 -30 -38 -26 -36 3 -36 3 -20 26 18 26 41 26 58 0z"/>
<path d="M9545 2459 c-4 -6 2 -13 14 -16 19 -5 21 -13 21 -80 0 -90 -11 -116
-45 -107 -21 5 -25 2 -25 -15 0 -17 6 -21 33 -21 58 0 71 26 75 146 l4 104
-35 0 c-20 0 -39 -5 -42 -11z"/>
<path d="M9693 2463 c-14 -5 -18 -43 -5 -43 4 0 18 7 30 16 28 19 52 12 52
-16 0 -16 -6 -20 -35 -20 -22 0 -43 -8 -55 -20 -23 -23 -24 -33 -10 -61 12
-22 78 -27 98 -7 9 9 12 9 12 -1 0 -17 62 -10 68 7 3 9 -3 12 -14 10 -17 -3
-19 5 -22 57 -2 32 -8 65 -14 72 -10 13 -80 17 -105 6z m77 -107 c0 -16 -7
-27 -20 -31 -38 -12 -57 24 -22 44 28 17 42 12 42 -13z"/>
<path d="M10193 2463 c-14 -5 -18 -43 -5 -43 4 0 18 7 30 16 28 19 52 12 52
-16 0 -16 -6 -20 -35 -20 -22 0 -43 -8 -55 -20 -23 -23 -24 -33 -10 -61 12
-22 78 -27 98 -7 9 9 12 9 12 -1 0 -17 62 -10 68 7 3 9 -3 12 -14 10 -17 -3
-19 5 -22 57 -2 32 -8 65 -14 72 -10 13 -80 17 -105 6z m77 -107 c0 -16 -7
-27 -20 -31 -38 -12 -57 24 -22 44 28 17 42 12 42 -13z"/>
<path d="M11007 2452 c-19 -21 -21 -45 -7 -73 8 -14 7 -19 -1 -19 -7 0 -10
-12 -7 -30 3 -17 1 -33 -4 -36 -16 -10 -8 -53 11 -64 29 -15 104 -12 129 6 25
17 30 65 9 82 -7 6 -35 12 -62 14 -60 4 -66 21 -10 28 57 8 68 17 63 56 -3 29
-1 33 14 28 12 -3 18 0 18 10 0 25 -131 23 -153 -2z m67 -8 c21 -8 21 -60 0
-68 -34 -13 -59 35 -32 62 14 14 12 14 32 6z m37 -160 c11 -14 10 -18 -6 -30
-24 -18 -46 -18 -70 0 -11 8 -16 19 -12 30 8 21 70 22 88 0z"/>
</g>
</svg>
